<svg width="211" height="78" viewBox="0 0 211 78" fill="none" xmlns="http://www.w3.org/2000/svg">
<path d="M68.0529 29.4877C67.9596 28.7597 67.7636 28.1623 67.4649 27.6957C67.1289 27.1917 66.7089 26.8277 66.2049 26.6037C65.7196 26.361 65.0942 26.2397 64.3289 26.2397C63.0596 26.2397 62.1729 26.5103 61.6689 27.0517C61.1836 27.537 60.9409 28.237 60.9409 29.1517C60.9409 29.6743 61.0156 30.1037 61.1649 30.4397C61.3142 30.757 61.5382 31.0183 61.8369 31.2237C62.2849 31.541 63.0222 31.7463 64.0489 31.8397C65.0942 31.933 65.9716 32.0823 66.6809 32.2877C67.4089 32.4743 68.0436 32.7357 68.5849 33.0717C69.9476 33.9303 70.6289 35.2743 70.6289 37.1037C70.6289 37.813 70.4889 38.485 70.2089 39.1197C69.9289 39.7543 69.5369 40.3237 69.0329 40.8277C68.4356 41.4063 67.7262 41.8357 66.9049 42.1157C66.1022 42.3957 65.2622 42.5357 64.3849 42.5357C62.4062 42.5357 60.8289 41.9757 59.6529 40.8557C58.6449 39.8477 58.0382 38.5037 57.8329 36.8237L57.8889 36.7957H60.3529C60.5022 37.785 60.8382 38.5223 61.3609 39.0077C62.0889 39.6797 63.0689 40.0157 64.3009 40.0157C65.4769 40.0157 66.4102 39.745 67.1009 39.2037C67.7916 38.6623 68.1369 37.9623 68.1369 37.1037C68.1369 36.7117 68.0809 36.3757 67.9689 36.0957C67.8756 35.797 67.6889 35.5357 67.4089 35.3117C66.7742 34.8263 65.5889 34.5183 63.8529 34.3877C62.0796 34.2383 60.7356 33.725 59.8209 32.8477C58.9062 31.9703 58.4489 30.7383 58.4489 29.1517C58.4489 27.5463 58.9436 26.249 59.9329 25.2597C60.9782 24.2143 62.4342 23.6917 64.3009 23.6917C66.2422 23.6917 67.7542 24.2797 68.8369 25.4557C69.7889 26.4823 70.3676 27.8263 70.5729 29.4877H68.0529ZM83.9451 42.3677V40.2397C83.3477 40.9303 82.6571 41.481 81.8731 41.8917C81.0891 42.3023 80.2584 42.5077 79.3811 42.5077C78.4104 42.5077 77.4957 42.3303 76.6371 41.9757C75.7971 41.621 75.0504 41.117 74.3971 40.4637C73.7437 39.829 73.2304 39.0823 72.8571 38.2237C72.5024 37.3463 72.3251 36.4317 72.3251 35.4797C72.3251 34.5277 72.5024 33.6223 72.8571 32.7637C73.2304 31.8863 73.7437 31.121 74.3971 30.4677C75.0504 29.8143 75.7971 29.3103 76.6371 28.9557C77.4957 28.601 78.4104 28.4237 79.3811 28.4237C80.2771 28.4237 81.1171 28.6103 81.9011 28.9837C82.7037 29.357 83.3851 29.8797 83.9451 30.5517V28.7037H86.4651V42.3677H83.9451ZM79.3811 30.9157C78.7651 30.9157 78.1677 31.037 77.5891 31.2797C77.0291 31.5037 76.5437 31.821 76.1331 32.2317C75.7224 32.6423 75.3957 33.137 75.1531 33.7157C74.9291 34.2757 74.8171 34.8637 74.8171 35.4797C74.8171 36.0957 74.9291 36.6837 75.1531 37.2437C75.3957 37.8037 75.7224 38.289 76.1331 38.6997C76.5437 39.1103 77.0291 39.437 77.5891 39.6797C78.1677 39.9037 78.7651 40.0157 79.3811 40.0157C79.9971 40.0157 80.5851 39.9037 81.1451 39.6797C81.7051 39.437 82.1904 39.1103 82.6011 38.6997C83.0117 38.289 83.3291 37.8037 83.5531 37.2437C83.7957 36.6837 83.9171 36.0957 83.9171 35.4797C83.9171 34.8637 83.7957 34.2757 83.5531 33.7157C83.3291 33.137 83.0117 32.6423 82.6011 32.2317C82.1904 31.821 81.7051 31.5037 81.1451 31.2797C80.5851 31.037 79.9971 30.9157 79.3811 30.9157ZM92.9254 30.7197V42.3677H90.5734V30.7197H89.2574V28.3677H90.6014C90.6388 27.4717 90.8908 26.669 91.3574 25.9597C91.8428 25.2503 92.4774 24.6997 93.2614 24.3077C94.0454 23.9157 94.9041 23.7197 95.8374 23.7197V26.1277C95.0534 26.0903 94.3908 26.2863 93.8494 26.7157C93.3268 27.145 93.0468 27.6957 93.0094 28.3677H95.8374V30.7197H92.9254ZM99.3764 36.4317C99.3764 36.8797 99.535 37.3463 99.8524 37.8317C100.188 38.317 100.571 38.7277 101 39.0637C101.784 39.6797 102.699 39.9877 103.744 39.9877C105.406 39.9877 106.759 39.185 107.804 37.5797L109.932 38.8397C109.204 40.0157 108.308 40.921 107.244 41.5557C106.18 42.1903 105.014 42.5077 103.744 42.5077C102.792 42.5077 101.887 42.3303 101.028 41.9757C100.17 41.6023 99.4137 41.089 98.7604 40.4357C98.107 39.7823 97.5937 39.0263 97.2204 38.1677C96.8657 37.309 96.6884 36.4037 96.6884 35.4517C96.6884 34.4997 96.8657 33.5943 97.2204 32.7357C97.5937 31.8583 98.107 31.093 98.7604 30.4397C99.395 29.7863 100.142 29.2823 101 28.9277C101.878 28.573 102.792 28.3957 103.744 28.3957C104.696 28.3957 105.602 28.573 106.46 28.9277C107.338 29.2823 108.094 29.7863 108.728 30.4397C110.11 31.8583 110.8 33.501 110.8 35.3677C110.8 35.7037 110.772 36.0583 110.716 36.4317H99.3764ZM103.744 30.6917C102.979 30.6917 102.26 30.8597 101.588 31.1957C100.916 31.5317 100.375 31.9797 99.9644 32.5397C99.5724 33.081 99.3764 33.6597 99.3764 34.2757H108.112C108.112 33.6597 107.907 33.081 107.496 32.5397C107.104 31.9797 106.572 31.5317 105.9 31.1957C105.228 30.8597 104.51 30.6917 103.744 30.6917ZM120.012 26.1277V42.3677H117.548V26.1277H113.04V23.7477H124.52V26.1277H120.012ZM126.365 36.4317C126.365 36.8797 126.523 37.3463 126.841 37.8317C127.177 38.317 127.559 38.7277 127.989 39.0637C128.773 39.6797 129.687 39.9877 130.733 39.9877C132.394 39.9877 133.747 39.185 134.793 37.5797L136.921 38.8397C136.193 40.0157 135.297 40.921 134.233 41.5557C133.169 42.1903 132.002 42.5077 130.733 42.5077C129.781 42.5077 128.875 42.3303 128.017 41.9757C127.158 41.6023 126.402 41.089 125.749 40.4357C125.095 39.7823 124.582 39.0263 124.209 38.1677C123.854 37.309 123.677 36.4037 123.677 35.4517C123.677 34.4997 123.854 33.5943 124.209 32.7357C124.582 31.8583 125.095 31.093 125.749 30.4397C126.383 29.7863 127.13 29.2823 127.989 28.9277C128.866 28.573 129.781 28.3957 130.733 28.3957C131.685 28.3957 132.59 28.573 133.449 28.9277C134.326 29.2823 135.082 29.7863 135.717 30.4397C137.098 31.8583 137.789 33.501 137.789 35.3677C137.789 35.7037 137.761 36.0583 137.705 36.4317H126.365ZM130.733 30.6917C129.967 30.6917 129.249 30.8597 128.577 31.1957C127.905 31.5317 127.363 31.9797 126.953 32.5397C126.561 33.081 126.365 33.6597 126.365 34.2757H135.101C135.101 33.6597 134.895 33.081 134.485 32.5397C134.093 31.9797 133.561 31.5317 132.889 31.1957C132.217 30.8597 131.498 30.6917 130.733 30.6917ZM151.375 42.3677V40.2397C150.777 40.9303 150.087 41.481 149.303 41.8917C148.519 42.3023 147.688 42.5077 146.811 42.5077C145.84 42.5077 144.925 42.3303 144.067 41.9757C143.227 41.621 142.48 41.117 141.827 40.4637C141.173 39.829 140.66 39.0823 140.287 38.2237C139.932 37.3463 139.755 36.4317 139.755 35.4797C139.755 34.5277 139.932 33.6223 140.287 32.7637C140.66 31.8863 141.173 31.121 141.827 30.4677C142.48 29.8143 143.227 29.3103 144.067 28.9557C144.925 28.601 145.84 28.4237 146.811 28.4237C147.707 28.4237 148.547 28.6103 149.331 28.9837C150.133 29.357 150.815 29.8797 151.375 30.5517V28.7037H153.895V42.3677H151.375ZM146.811 30.9157C146.195 30.9157 145.597 31.037 145.019 31.2797C144.459 31.5037 143.973 31.821 143.563 32.2317C143.152 32.6423 142.825 33.137 142.583 33.7157C142.359 34.2757 142.247 34.8637 142.247 35.4797C142.247 36.0957 142.359 36.6837 142.583 37.2437C142.825 37.8037 143.152 38.289 143.563 38.6997C143.973 39.1103 144.459 39.437 145.019 39.6797C145.597 39.9037 146.195 40.0157 146.811 40.0157C147.427 40.0157 148.015 39.9037 148.575 39.6797C149.135 39.437 149.62 39.1103 150.031 38.6997C150.441 38.289 150.759 37.8037 150.983 37.2437C151.225 36.6837 151.347 36.0957 151.347 35.4797C151.347 34.8637 151.225 34.2757 150.983 33.7157C150.759 33.137 150.441 32.6423 150.031 32.2317C149.62 31.821 149.135 31.5037 148.575 31.2797C148.015 31.037 147.427 30.9157 146.811 30.9157Z" fill="#FFF7DA"/>
<path d="M0 54.8129H51.8281H53.3333H26.6667H0ZM58 1.8271C56.6667 0.609032 55.3333 0 53.3333 0H0V30.4516C0 33.8013 1.33333 36.5419 4 38.9781C6.66667 41.4142 9.66667 42.6323 13.3333 42.6323H33.3333C37 42.6323 40 41.4142 42.6667 38.9781C45.3333 36.5419 46.6667 33.8013 46.6667 30.4516V21.3161H53.3333C55.3333 21.3161 56.6667 20.7071 58 19.489C59.3333 18.271 60 17.0529 60 15.2258V6.09032C60 4.56774 59.3333 3.04516 58 1.8271ZM40 6.09032V30.4516C40 32.2787 39.3333 33.4968 38 34.7148C36.6667 35.9329 35.3333 36.5419 33.3333 36.5419H13.3333C11.3333 36.5419 10 35.9329 8.66667 34.7148C7.33333 33.4968 6.66667 31.9742 6.66667 30.4516V6.09032H20V10.3536L14 14.6168C13.3333 14.9213 13.3333 15.5303 13.3333 15.8348V28.929C13.3333 29.8426 14 30.4516 15 30.4516H28.3333C29.3333 30.4516 30 29.8426 30 28.929V15.8348C30 15.2258 29.6667 14.9213 29.3333 14.6168L23.3333 10.3536V6.09032H40ZM53.3333 15.2258H46.6667V6.09032H53.3333V15.2258Z" fill="#FFF7DA"/>
</svg>
