<svg width="320" height="65" viewBox="0 0 320 65" fill="none" xmlns="http://www.w3.org/2000/svg">
<path d="M304.001 43.3335C305.467 43.3335 306.667 42.1335 306.667 40.6668H301.334C301.334 42.1335 302.534 43.3335 304.001 43.3335ZM312.001 35.3335V28.6668C312.001 24.5735 309.827 21.1468 306.001 20.2402V19.3335C306.001 18.2268 305.107 17.3335 304.001 17.3335C302.894 17.3335 302.001 18.2268 302.001 19.3335V20.2402C298.187 21.1468 296.001 24.5602 296.001 28.6668V35.3335L293.334 38.0002V39.3335H314.667V38.0002L312.001 35.3335ZM309.334 36.6668H298.667V28.6668C298.667 25.3602 300.681 22.6668 304.001 22.6668C307.321 22.6668 309.334 25.3602 309.334 28.6668V36.6668Z" fill="#FFF7DA"/>
<g filter="url(#filter0_dd_53:17647)">
<rect x="34.5" y="0.5" width="221" height="55.5317" rx="27.7659" fill="#FFF7DA" stroke="#FFF7DA"/>
</g>
<g filter="url(#filter1_d_53:17647)">
<path d="M96.8402 26.14C96.6669 25.94 96.3802 25.7333 95.9802 25.52C95.5935 25.2933 95.1402 25.1 94.6202 24.94C94.1002 24.78 93.5602 24.7 93.0002 24.7C92.0535 24.7 91.3535 24.8733 90.9002 25.22C90.4602 25.5667 90.2402 26.0467 90.2402 26.66C90.2402 27.1133 90.3669 27.4733 90.6202 27.74C90.8735 27.9933 91.2602 28.2133 91.7802 28.4C92.3002 28.5733 92.9535 28.7533 93.7402 28.94C94.7002 29.1667 95.5269 29.44 96.2202 29.76C96.9269 30.0667 97.4669 30.48 97.8402 31C98.2269 31.52 98.4202 32.2067 98.4202 33.06C98.4202 34.0333 98.1869 34.82 97.7202 35.42C97.2535 36.02 96.6202 36.46 95.8202 36.74C95.0335 37.0067 94.1669 37.14 93.2202 37.14C92.1402 37.14 91.0935 36.9733 90.0802 36.64C89.0669 36.3067 88.1602 35.8333 87.3602 35.22L88.3802 33.3C88.6069 33.5267 88.9669 33.7867 89.4602 34.08C89.9535 34.36 90.5269 34.6067 91.1802 34.82C91.8469 35.02 92.5402 35.12 93.2602 35.12C94.1402 35.12 94.8202 34.9667 95.3002 34.66C95.7802 34.34 96.0202 33.8867 96.0202 33.3C96.0202 32.82 95.8602 32.44 95.5402 32.16C95.2335 31.8667 94.7869 31.6267 94.2002 31.44C93.6269 31.24 92.9335 31.0333 92.1202 30.82C91.1869 30.58 90.4069 30.3067 89.7802 30C89.1535 29.6933 88.6802 29.3067 88.3602 28.84C88.0535 28.3733 87.9002 27.7667 87.9002 27.02C87.9002 26.0867 88.1269 25.3 88.5802 24.66C89.0335 24.0067 89.6469 23.52 90.4202 23.2C91.2069 22.8667 92.0869 22.7 93.0602 22.7C94.0202 22.7 94.9069 22.8533 95.7202 23.16C96.5335 23.4667 97.2469 23.8467 97.8602 24.3L96.8402 26.14ZM101.587 24.82V22.4H103.787V24.82H101.587ZM101.587 37V26.54H103.787V37H101.587ZM111.771 37.1C110.824 37.1 109.991 36.8533 109.271 36.36C108.564 35.8667 108.004 35.22 107.591 34.42C107.191 33.6067 106.991 32.7267 106.991 31.78C106.991 30.7933 107.197 29.8867 107.611 29.06C108.024 28.2333 108.591 27.58 109.311 27.1C110.044 26.6067 110.891 26.36 111.851 26.36C112.691 26.36 113.424 26.56 114.051 26.96C114.691 27.36 115.217 27.88 115.631 28.52V26.54H117.571V36.7C117.571 37.7133 117.324 38.5733 116.831 39.28C116.351 39.9867 115.691 40.5267 114.851 40.9C114.011 41.2733 113.064 41.46 112.011 41.46C110.851 41.46 109.884 41.26 109.111 40.86C108.351 40.46 107.711 39.9133 107.191 39.22L108.431 38.06C108.831 38.62 109.344 39.0467 109.971 39.34C110.611 39.6333 111.291 39.78 112.011 39.78C112.611 39.78 113.164 39.6667 113.671 39.44C114.191 39.2267 114.604 38.8933 114.911 38.44C115.217 37.9867 115.371 37.4067 115.371 36.7V35.1C114.997 35.7267 114.484 36.22 113.831 36.58C113.177 36.9267 112.491 37.1 111.771 37.1ZM112.491 35.32C112.931 35.32 113.351 35.2267 113.751 35.04C114.151 34.84 114.491 34.58 114.771 34.26C115.064 33.94 115.264 33.6 115.371 33.24V30.5C115.104 29.8333 114.684 29.2933 114.111 28.88C113.551 28.4533 112.957 28.24 112.331 28.24C111.691 28.24 111.137 28.4133 110.671 28.76C110.217 29.1067 109.864 29.56 109.611 30.12C109.357 30.6667 109.231 31.24 109.231 31.84C109.231 32.48 109.371 33.0667 109.651 33.6C109.944 34.12 110.337 34.54 110.831 34.86C111.324 35.1667 111.877 35.32 112.491 35.32ZM130.789 37H128.589V31.14C128.589 30.1533 128.429 29.44 128.109 29C127.802 28.5467 127.342 28.32 126.729 28.32C126.302 28.32 125.875 28.4267 125.449 28.64C125.035 28.8533 124.662 29.1467 124.329 29.52C123.995 29.8933 123.755 30.3133 123.609 30.78V37H121.409V26.54H123.409V28.64C123.809 27.9467 124.389 27.3933 125.149 26.98C125.909 26.5667 126.749 26.36 127.669 26.36C128.495 26.36 129.135 26.56 129.589 26.96C130.042 27.3467 130.355 27.86 130.529 28.5C130.702 29.14 130.789 29.8467 130.789 30.62V37ZM146.864 37.1C145.85 37.1 144.924 36.9 144.084 36.5C143.257 36.1 142.544 35.56 141.944 34.88C141.344 34.1867 140.877 33.4133 140.544 32.56C140.224 31.6933 140.064 30.8067 140.064 29.9C140.064 28.9533 140.237 28.0533 140.584 27.2C140.93 26.3333 141.41 25.5667 142.024 24.9C142.637 24.22 143.357 23.6867 144.184 23.3C145.024 22.9 145.93 22.7 146.904 22.7C147.917 22.7 148.837 22.9067 149.664 23.32C150.504 23.7333 151.217 24.2867 151.804 24.98C152.404 25.6733 152.864 26.4467 153.184 27.3C153.517 28.1533 153.684 29.0267 153.684 29.92C153.684 30.8667 153.51 31.7733 153.164 32.64C152.83 33.4933 152.357 34.26 151.744 34.94C151.13 35.6067 150.404 36.1333 149.564 36.52C148.737 36.9067 147.837 37.1 146.864 37.1ZM142.344 29.9C142.344 30.7933 142.53 31.64 142.904 32.44C143.277 33.2267 143.797 33.8667 144.464 34.36C145.144 34.84 145.95 35.08 146.884 35.08C147.59 35.08 148.224 34.9333 148.784 34.64C149.344 34.3467 149.817 33.9533 150.204 33.46C150.59 32.9533 150.884 32.3933 151.084 31.78C151.284 31.1667 151.384 30.54 151.384 29.9C151.384 29.0067 151.197 28.1667 150.824 27.38C150.464 26.5933 149.944 25.96 149.264 25.48C148.584 24.9867 147.79 24.74 146.884 24.74C146.164 24.74 145.524 24.8867 144.964 25.18C144.404 25.4733 143.93 25.8667 143.544 26.36C143.157 26.8533 142.857 27.4067 142.644 28.02C142.444 28.6333 142.344 29.26 142.344 29.9ZM156.823 32.94V26.54H159.023V32.5C159.023 34.38 159.689 35.32 161.023 35.32C161.649 35.32 162.243 35.1267 162.803 34.74C163.363 34.34 163.796 33.78 164.103 33.06V26.54H166.303V34.52C166.303 34.7733 166.349 34.9533 166.443 35.06C166.536 35.1667 166.689 35.2267 166.903 35.24V37C166.676 37.04 166.489 37.0667 166.343 37.08C166.196 37.0933 166.056 37.1 165.923 37.1C165.523 37.1 165.189 36.9933 164.923 36.78C164.656 36.5667 164.503 36.28 164.463 35.92L164.423 34.88C163.956 35.64 163.349 36.22 162.603 36.62C161.856 37.0067 161.036 37.2 160.143 37.2C159.049 37.2 158.223 36.84 157.663 36.12C157.103 35.4 156.823 34.34 156.823 32.94ZM176.111 36.46C175.831 36.5933 175.444 36.7467 174.951 36.92C174.457 37.08 173.931 37.16 173.371 37.16C172.677 37.16 172.077 36.9733 171.571 36.6C171.077 36.2267 170.831 35.62 170.831 34.78V28.24H169.451V26.54H170.831V23.1H173.031V26.54H175.311V28.24H173.031V34.08C173.057 34.4533 173.171 34.7267 173.371 34.9C173.584 35.06 173.844 35.14 174.151 35.14C174.457 35.14 174.751 35.0867 175.031 34.98C175.311 34.8733 175.517 34.7867 175.651 34.72L176.111 36.46Z" fill="#18525D"/>
</g>
<path fill-rule="evenodd" clip-rule="evenodd" d="M202 21C202 19.344 203.447 18 205.231 18H209.847C210.214 18 210.566 18.1355 210.826 18.3766C211.085 18.6177 211.231 18.9447 211.231 19.2857C211.231 19.6267 211.085 19.9537 210.826 20.1949C210.566 20.436 210.214 20.5714 209.847 20.5714H205.231C205.109 20.5714 204.991 20.6166 204.905 20.697C204.818 20.7773 204.769 20.8863 204.769 21V39C204.769 39.2366 204.976 39.4286 205.231 39.4286H209.847C210.214 39.4286 210.566 39.564 210.826 39.8051C211.085 40.0463 211.231 40.3733 211.231 40.7143C211.231 41.0553 211.085 41.3823 210.826 41.6234C210.566 41.8645 210.214 42 209.847 42H205.231C204.374 42 203.552 41.6839 202.946 41.1213C202.34 40.5587 202 39.7956 202 39V21ZM221.275 28.7143H210.77C210.402 28.7143 210.05 28.8497 209.791 29.0909C209.531 29.332 209.385 29.659 209.385 30C209.385 30.341 209.531 30.668 209.791 30.9091C210.05 31.1503 210.402 31.2857 210.77 31.2857H221.275L217.638 34.6629C217.502 34.7806 217.393 34.9225 217.317 35.0802C217.241 35.2379 217.2 35.4082 217.197 35.5808C217.194 35.7535 217.228 35.9249 217.298 36.085C217.367 36.2451 217.471 36.3905 217.603 36.5126C217.734 36.6347 217.891 36.731 218.063 36.7956C218.236 36.8603 218.42 36.8921 218.606 36.889C218.792 36.886 218.975 36.8482 219.145 36.7779C219.315 36.7076 219.468 36.6063 219.595 36.48L225.595 30.9086C225.854 30.6675 226 30.3407 226 30C226 29.6593 225.854 29.3325 225.595 29.0914L219.595 23.52C219.468 23.3937 219.315 23.2924 219.145 23.2221C218.975 23.1518 218.792 23.114 218.606 23.111C218.42 23.1079 218.236 23.1397 218.063 23.2044C217.891 23.269 217.734 23.3653 217.603 23.4874C217.471 23.6095 217.367 23.7549 217.298 23.915C217.228 24.0751 217.194 24.2465 217.197 24.4192C217.2 24.5918 217.241 24.7621 217.317 24.9198C217.393 25.0775 217.502 25.2194 217.638 25.3371L221.275 28.7143V28.7143Z" fill="#18525D"/>
<defs>
<filter id="filter0_dd_53:17647" x="30" y="0" width="230" height="64.5317" filterUnits="userSpaceOnUse" color-interpolation-filters="sRGB">
<feFlood flood-opacity="0" result="BackgroundImageFix"/>
<feColorMatrix in="SourceAlpha" type="matrix" values="0 0 0 0 0 0 0 0 0 0 0 0 0 0 0 0 0 0 127 0" result="hardAlpha"/>
<feOffset dy="4"/>
<feGaussianBlur stdDeviation="2"/>
<feComposite in2="hardAlpha" operator="out"/>
<feColorMatrix type="matrix" values="0 0 0 0 0 0 0 0 0 0 0 0 0 0 0 0 0 0 0.25 0"/>
<feBlend mode="normal" in2="BackgroundImageFix" result="effect1_dropShadow_53:17647"/>
<feColorMatrix in="SourceAlpha" type="matrix" values="0 0 0 0 0 0 0 0 0 0 0 0 0 0 0 0 0 0 127 0" result="hardAlpha"/>
<feOffset dy="4"/>
<feGaussianBlur stdDeviation="2"/>
<feComposite in2="hardAlpha" operator="out"/>
<feColorMatrix type="matrix" values="0 0 0 0 0 0 0 0 0 0 0 0 0 0 0 0 0 0 0.25 0"/>
<feBlend mode="normal" in2="effect1_dropShadow_53:17647" result="effect2_dropShadow_53:17647"/>
<feBlend mode="normal" in="SourceGraphic" in2="effect2_dropShadow_53:17647" result="shape"/>
</filter>
<filter id="filter1_d_53:17647" x="83.3594" y="22.3999" width="96.752" height="27.0601" filterUnits="userSpaceOnUse" color-interpolation-filters="sRGB">
<feFlood flood-opacity="0" result="BackgroundImageFix"/>
<feColorMatrix in="SourceAlpha" type="matrix" values="0 0 0 0 0 0 0 0 0 0 0 0 0 0 0 0 0 0 127 0" result="hardAlpha"/>
<feOffset dy="4"/>
<feGaussianBlur stdDeviation="2"/>
<feComposite in2="hardAlpha" operator="out"/>
<feColorMatrix type="matrix" values="0 0 0 0 0 0 0 0 0 0 0 0 0 0 0 0 0 0 0.25 0"/>
<feBlend mode="normal" in2="BackgroundImageFix" result="effect1_dropShadow_53:17647"/>
<feBlend mode="normal" in="SourceGraphic" in2="effect1_dropShadow_53:17647" result="shape"/>
</filter>
</defs>
</svg>
